<svg width="16" height="16" viewBox="0 0 16 16" fill="none" xmlns="http://www.w3.org/2000/svg">
<path d="M9.90606 8.89129L9.66117 9.23573L9.96001 9.53458L13.8098 13.3844C13.863 13.4407 13.8924 13.5154 13.8917 13.593C13.891 13.6717 13.8595 13.7469 13.8039 13.8025L14.1574 14.1561L13.8039 13.8025C13.7482 13.8581 13.673 13.8897 13.5943 13.8904C13.5168 13.8911 13.442 13.8617 13.3857 13.8085L9.53672 9.95947L9.23786 9.66061L8.89341 9.90554C8.25011 10.363 7.4933 10.6345 6.70591 10.6904C5.91853 10.7462 5.13096 10.5843 4.42951 10.2223C3.72806 9.86027 3.13979 9.31216 2.72916 8.638L2.30214 8.8981L2.72916 8.638C2.31854 7.96385 2.10141 7.18968 2.10156 6.40032L2.10156 6.40016C2.10148 5.72341 2.26112 5.0562 2.56752 4.45279C2.87391 3.84938 3.31841 3.3268 3.86485 2.92757C4.41129 2.52833 5.04424 2.26371 5.71223 2.15522C6.38023 2.04673 7.06439 2.09744 7.7091 2.30323C8.3538 2.50901 8.94082 2.86405 9.42243 3.33949C9.90404 3.81492 10.2666 4.39731 10.4807 5.0393C10.6948 5.68129 10.7544 6.36475 10.6545 7.03409C10.5546 7.70343 10.2982 8.33974 9.90606 8.89129ZM6.40156 2.70022C5.42026 2.70022 4.47915 3.09004 3.78527 3.78393C3.09138 4.47781 2.70156 5.41892 2.70156 6.40022C2.70156 7.38152 3.09138 8.32263 3.78527 9.01652C4.47915 9.7104 5.42026 10.1002 6.40156 10.1002C7.38286 10.1002 8.32397 9.7104 9.01786 9.01652C9.71174 8.32263 10.1016 7.38152 10.1016 6.40022C10.1016 5.41892 9.71174 4.47781 9.01786 3.78393C8.32397 3.09004 7.38286 2.70022 6.40156 2.70022Z" fill="#6B7280" stroke="#6B7280"/>
</svg>
